# cube.obj

mtllib cube.mtl
g all

v -10 -10 -10
v 10 -10 -10
v -10 10 -10
v 10 10 -10
v -10 -10 10
v 10 -10 10
v -10 10 10
v 10 10 10

vt 0.85 0.85
vt 0.25 0
vt 0.25 0.25
vt 0.5 0.25
vt 0.50 0.75
vt 0.75 0.75 

vn 0 0 1
vn 0 0 -1
vn 0 1 0
vn 0 -1 0
vn 1 0 0
vn -1 0 0

usemtl Material__1
f 7/1/1 5/1/1 8/1/1
f 5/1/1 6/1/1 8/1/1
f 8/2/5 6/2/5 4/2/5
f 6/2/5 2/2/5 4/2/5
f 7/3/3 8/3/3 3/3/3
f 8/3/3 4/3/3 3/3/3
f 3/4/6 1/4/6 7/4/6
f 1/4/6 5/4/6 7/4/6
f 5/5/4 1/5/4 6/5/4
f 1/5/4 2/5/4 6/5/4
f 4/6/2 2/6/2 3/6/2
f 2/6/2 1/6/2 3/6/2